<?xml version="1.0" encoding="UTF-8"?>
<svg width="1024px" height="1024px" viewBox="0 0 1024 1024" xmlns="http://www.w3.org/2000/svg" xmlns:xlink="http://www.w3.org/1999/xlink" version="1.1">
 <!-- Generated by Pixelmator Pro 1.6 -->
 <g id="Arthur">
  <path id="dx" d="M604.576 246.284 L734.464 796.335" fill="none" stroke="#444444" stroke-width="60" stroke-opacity="1" stroke-linejoin="round"/>
  <path id="sx" d="M580.857 245.155 L296.231 745.509" fill="none" stroke="#444444" stroke-width="60" stroke-opacity="1" stroke-linejoin="round"/>
  <path id="center" d="M438.544 497.026 L713.005 796.335" fill="none" stroke="#444444" stroke-width="60" stroke-opacity="1" stroke-linejoin="round"/>
  <path id="Ball" d="M668.364 779.455 C710.606 714.486 806.89 727.661 830.446 801.635 854.981 878.681 775.44 945.956 703.467 909.033 656.361 884.866 639.734 823.489 668.364 779.455 Z" fill="#444444" fill-opacity="1" stroke="none"/>
  <path id="Ball-1" d="M294.257 666.909 C370.234 681.701 394.726 776.072 335.486 825.772 273.786 877.536 181.488 828.973 188.143 748.246 192.499 695.411 242.762 656.883 294.257 666.909 Z" fill="#444444" fill-opacity="1" stroke="none"/>
  <path id="Ball-2" d="M586.572 261.609 C509.641 253.432 477.48 162.048 532.432 107.775 589.667 51.247 685.638 91.483 685.638 172.006 685.638 224.709 638.714 267.151 586.572 261.609 Z" fill="#444444" fill-opacity="1" stroke="none"/>
  <path id="Ball-3" d="M483.954 528.95 C458.838 569.438 399.34 562.955 383.797 518.037 367.61 471.252 415.672 428.736 460.524 450.165 489.88 464.19 500.978 501.508 483.954 528.95 Z" fill="#444444" fill-opacity="1" stroke="none"/>
 </g>
</svg>
