<?xml version="1.0" encoding="UTF-8"?>
<svg width="1024px" height="1024px" viewBox="0 0 1024 1024" xmlns="http://www.w3.org/2000/svg" xmlns:xlink="http://www.w3.org/1999/xlink" version="1.1">
 <!-- Generated by Pixelmator Pro 1.6 -->
 <g id="Horace">
  <path id="Shape" d="M357.651 481.87 C318.141 457.222 317.66 456.446 330.249 450.387 380.231 426.327 434.562 444.557 460.47 494.081 463.444 499.766 465.725 503.119 467.077 503.794 469.746 505.127 535.262 505.263 547.011 503.96 597.29 498.384 644.927 467.341 678.185 418.48 692.606 397.295 692.499 398.732 680.251 390.578 634.444 360.083 623.086 293.974 656.52 252.455 692.241 208.098 754.867 201.943 796.029 238.744 854.3 290.843 829.596 385.964 753.098 404.045 747.801 405.297 747.737 405.371 740.466 418.961 722.405 452.711 696.901 480.921 668.792 498.238 661.886 502.492 661.409 503.713 666.361 504.456 671.377 505.208 732.272 504.501 734.084 503.669 734.906 503.292 737.766 498.479 740.439 492.974 785.339 400.509 925.151 435.111 921.9 537.884 918.788 636.261 786.665 665.237 741.311 577.49 734.37 564.062 737.923 565.137 700.476 565.137 661.146 565.137 661.047 565.166 673.313 573.078 700.846 590.841 723.716 616.885 741.372 650.586 749.089 665.315 747.111 663.568 761.081 667.983 812.342 684.181 840.502 738.76 823.456 788.876 808.118 833.973 759.516 863.064 715.246 853.648 645.785 838.872 613.614 758.383 655.194 703.4 661.019 695.697 674.02 682.966 679.651 679.451 692.961 671.141 692.89 672.342 681.106 654.589 662.863 627.105 645.462 609.316 621.099 593.246 586.7 570.555 555.182 563.21 498.047 564.569 469.423 565.25 464.94 566.248 463.112 572.347 461.759 576.862 454.05 588.901 447.697 596.416 388.859 666.032 276.573 623.778 278.985 532.929 279.654 507.748 280.359 507.594 303.806 527.492 317.323 538.964 317.452 539.124 319.765 547.337 334.995 601.415 407.293 605.551 424.688 553.339 437.545 514.747 408.183 479.079 365.497 481.436 L357.651 481.87 Z M749.61 810.751 C793.009 797.041 799.587 735.995 760.172 712.737 729.977 694.92 692.838 709.117 681.248 742.906 667.166 783.965 707.546 824.039 749.61 810.751 Z M840.776 586.876 C869.501 579.726 887.804 545.762 878.122 517.576 860.645 466.695 787.524 469.227 774.239 521.174 764.084 560.879 800.551 596.888 840.776 586.876 Z M749.932 361.643 C779.869 352.102 795.179 315.952 781.434 287.261 759.876 242.258 694.051 247.637 680.927 295.474 669.353 337.66 708.227 374.937 749.932 361.643 Z" fill="#444444" fill-opacity="1" stroke="none"/>
  <path id="Shape-3" d="M356.826 491.223 C387.184 490.604 395.698 493.46 405.69 503.354 438.097 535.444 407.35 589.51 362.832 578.718 347.321 574.958 334.657 561.773 330.387 544.939 327.821 534.825 326.831 533.027 321.191 528.233 303.146 512.894 296.767 507.177 285.889 496.591 240.04 451.975 229.751 430.584 258.84 440.354 280.195 447.527 316.13 465.634 344.851 483.693 L356.826 491.223 Z" fill="#444444" fill-opacity="1" stroke="none"/>
  <path id="Shape-2" d="M344.851 806.173 C324.409 803.777 308.038 800.307 291.996 794.97 101.606 731.627 39.874 498.127 174.556 350.755 188.907 335.051 188.99 337.697 173.543 318.62 156.098 297.075 154.685 284.941 168.166 272.46 189.455 252.75 203.277 243.891 212.714 243.906 223.742 243.924 227.013 246.482 246.163 270.06 261.507 288.952 259.322 288.017 274.24 282.079 286.401 277.239 299.489 273.055 309.622 270.766 323.5 267.633 324.204 266.809 324.204 253.71 324.204 243.834 322.972 240.053 319.51 239.309 303.469 235.863 301.695 232.353 302.051 204.77 302.546 166.469 301.235 167.109 379.124 167.096 437.485 167.085 439.697 167.336 444.574 174.502 447.866 179.339 448.38 183.049 448.402 202.174 448.434 230.245 445.634 236.07 430.557 239.29 426.972 240.056 426.251 242.423 426.223 253.52 426.191 266.224 426.905 267.495 435.363 269.786 455.746 275.307 465.405 278.306 474.409 281.908 489.808 288.07 488.218 288.813 505.44 267.416 522.18 246.62 526.312 243.574 537.188 244.008 546.498 244.38 550.311 246.269 564.156 257.367 597.565 284.146 598.743 290.485 575.691 319.445 560.962 337.95 561.294 336.273 570.427 346.082 593.254 370.601 604.89 386.572 616.159 408.851 621.827 420.058 621.776 420.693 614.642 427.666 601.713 440.303 568.196 462.731 562.239 462.731 558.888 462.731 556.364 460.028 552.064 451.838 495.467 344.018 369.167 307.387 270.524 370.182 163.308 438.434 147.421 586.975 238.009 674.183 332.695 765.338 478.735 743.9 546.337 628.923 553.185 617.276 555.734 616.648 569.247 623.28 592.536 634.71 615.731 652.783 615.731 659.499 615.731 672.056 582.09 716.067 553.868 740.432 496.443 790.008 417.845 814.729 344.851 806.173 Z" fill="#444444" fill-opacity="1" stroke="none"/>
 </g>
</svg>
