<?xml version="1.0" encoding="UTF-8"?>
<svg width="1024px" height="1024px" viewBox="0 0 1024 1024" xmlns="http://www.w3.org/2000/svg" xmlns:xlink="http://www.w3.org/1999/xlink" version="1.1">
 <!-- Generated by Pixelmator Pro 1.6 -->
 <g id="Papaya">
  <path id="Body" d="M457.107 941.267 C393.69 935.084 336.53 901.622 299.892 849.228 296.745 844.728 292.964 839.336 291.489 837.244 290.014 835.153 288.809 832.671 288.809 831.727 288.809 830.784 287.83 828.647 286.636 826.98 278.019 814.954 252.398 750.25 252.398 740.515 252.398 739.072 251.69 736.675 250.827 735.186 243.917 723.284 231.9 651.61 230.808 615.789 229.541 574.148 242.4 496.742 253.573 478.769 254.678 476.993 256.021 473.67 256.558 471.387 258.448 463.343 267.771 444.004 274.958 433.214 277.009 430.134 279.989 425.484 281.579 422.878 288.299 411.87 302.075 396.255 321.517 377.608 325.933 373.374 333.906 365.523 339.233 360.166 353.56 345.757 357.258 342.112 361.63 338.469 361.63 338.469 366.334 332.849 384.285 315.154 407.95 291.828 521.832 173.043 525.022 168.359 528.061 163.897 556.502 133.578 560.007 131.064 570.19 123.761 590.779 125.265 597.087 126.587 605.692 128.389 615.933 133.249 624.128 144.585 628.559 150.715 628.766 150.757 637.866 147.337 653.866 141.326 671.592 141.129 679 146.88 680.452 148.008 682.945 149.875 684.54 151.029 693.081 157.212 695.673 163.819 705.192 203.673 709.491 221.675 713.458 238.73 714.006 241.572 714.555 244.414 715.412 247.708 715.912 248.892 717.234 252.028 737.627 333.184 739.419 342.445 740.254 346.763 741.309 351.035 741.763 351.938 744.223 356.829 763.767 441.713 763.767 447.499 763.767 449.208 764.307 451.634 764.967 452.892 767.021 456.811 776.396 505.104 781.545 538.294 782.463 544.216 783.607 550.341 784.086 551.906 784.566 553.47 784.725 555.736 784.442 556.941 784.15 558.18 784.342 559.664 784.884 560.36 785.412 561.038 786.126 564.78 786.469 568.676 786.813 572.573 787.666 581.576 788.364 588.681 792.139 627.112 791.79 656.466 787.13 692.469 785.839 702.46 785.022 706.268 783.89 707.599 782.936 708.718 782.377 710.666 782.377 712.862 782.377 716.785 777.332 736.484 773.482 747.593 763.442 776.57 748.503 803.74 730.15 826.404 727.848 829.246 725.822 831.992 725.649 832.508 724.554 835.755 699.327 858.689 683.97 870.399 669.549 881.394 640.507 898.574 622.978 906.476 620.087 907.78 615.352 909.927 612.46 911.248 609.567 912.568 602.286 915.456 596.278 917.666 590.27 919.877 584.019 922.226 582.388 922.888 552.339 935.079 488.977 944.374 457.107 941.267 Z" fill="#444444" fill-opacity="1" stroke="none"/>
  <path id="Pine" d="M650.393 154.217 C618.99 148.058 608.865 144.745 607.631 142.884 603.206 136.203 613.856 95.995 622.217 87.823 643.774 66.748 662.733 90.797 655.177 129.631 Z" fill="#444444" fill-opacity="1" stroke="none"/>
 </g>
</svg>
