<?xml version="1.0" encoding="UTF-8"?>
<svg width="1024px" height="1024px" viewBox="0 0 1024 1024" xmlns="http://www.w3.org/2000/svg" xmlns:xlink="http://www.w3.org/1999/xlink" version="1.1">
 <!-- Generated by Pixelmator Pro 1.6 -->
 <g id="Scarlett">
  <path id="Bottom" d="M225.762 853.885 C228.316 847.382 208.365 815.926 428.483 694.776 518.631 645.159 770.92 562.16 792.755 555.798 810.399 550.658 822.662 557.333 842.361 582.799 863.17 609.698 860.231 616.981 817.769 643.756 722.445 703.865 508.7 786.973 500.652 791.313 280.619 909.98 292.387 943.079 281.529 943 278.159 942.976 219.347 870.22 225.762 853.885 Z" fill="#444444" fill-opacity="1" stroke="none"/>
  <path id="Midle-upper" d="M207.929 469.267 C194.761 464.119 167.478 435.426 166.118 425.294 163.918 408.906 172.664 403.428 352.809 308.366 442.416 261.081 462.471 250.978 544.93 211.582 589.774 190.157 649.66 161.545 678.009 148 773.412 102.418 766.409 103.091 800.155 136.256 833.855 169.376 828.837 216.957 728.571 265.817 677.285 290.808 584.529 335.966 543.885 354.38 456.337 394.043 272.375 453.426 242.373 465.019 226.057 471.323 216.276 472.529 207.929 469.267 Z" fill="#444444" fill-opacity="1" stroke="none"/>
  <path id="Upper" d="M688.949 178.399 C663.233 169.115 584.926 141.612 584.926 141.612 584.926 141.612 519.626 96.995 548.605 91.271 564.278 88.176 626.958 76.118 662.737 83.466 693.87 89.86 751.163 100.844 780.046 114.764 802.922 125.79 805.147 132.995 806.839 135.379 836.229 176.776 817.576 196.766 798.774 217.215 794.144 222.25 692.986 177.386 688.949 178.399 Z" fill="#444444" fill-opacity="1" stroke="none"/>
  <path id="Middle" d="M746.954 618.531 C708.245 612.546 670.114 606.182 605.88 594.985 527.97 581.404 487.172 576.69 349.031 565.307 204.668 553.41 206.591 553.95 178.364 517.406 150.684 481.572 151.906 417.119 180.511 404.109 192.725 398.554 188.217 398.241 374.958 417.614 581.779 439.071 569.033 437.099 684.836 465.536 816.189 497.792 842.666 506.82 853.309 522.986 866.467 542.97 865.234 600.002 851.262 617.677 840.934 630.741 826.696 630.858 746.954 618.531 Z" fill="#444444" fill-opacity="1" stroke="none"/>
 </g>
</svg>
